# xmcd
#
# Track frame offsets: 
#        150
#        8063
#        21351
#        32506
#        43529
#        65939
#        75830
#        87621
#        109501
#        117993
#        131516
#        154844
#        167171
#        191850
#        234815
#
# Disc length: 3226 seconds
#
# Revision: 1
# Processed by: cddbd v1.5.2PL0 Copyright (c) Steve Scherf et al.
# Submitted via: ExactAudioCopy v1.3
#
DISCID=ba0c980f
DTITLE=Various Artist - Mojo - Action! 15 Cult Movie Classics
DYEAR=2013
DGENRE=Rock
TTITLE0=John Barry Orchestra - Beat Girl
TTITLE1=Clinic - If You Could Read Your Mind
TTITLE2=Rodriguez - Crucify Your Mind
TTITLE3=Bobby Womack - If You Don't Want My Love (Give It Back)
TTITLE4=Curtis Mayfield - Pusherman
TTITLE5=Ricky Nelson - Lonesome Town
TTITLE6=Ennio Morricone - Muchio Selvaggio
TTITLE7=Daniel Johnston - Some Things Last A Long Time
TTITLE8=Billy Green - Stone Is A Trip
TTITLE9=Broadcast - Our Darkest Sabbath
TTITLE10=Brian Jonestown Massacre  - Super-Sonic
TTITLE11=Last Poets - Wake Up Niggers
TTITLE12=Don Gere - Werewolves On Wheels
TTITLE13=Arthur Russell - Soon-To-Be Innocent Fun - Let's See
TTITLE14=David Lynch and Alan R. Splet - In Heaven (Lady In The Radiator
TTITLE14=Song)
EXTD=
EXTT0=
EXTT1=
EXTT2=
EXTT3=
EXTT4=
EXTT5=
EXTT6=
EXTT7=
EXTT8=
EXTT9=
EXTT10=
EXTT11=
EXTT12=
EXTT13=
EXTT14=
PLAYORDER=
